<mxfile host="Electron" agent="Mozilla/5.0 (Windows NT 10.0; Win64; x64) AppleWebKit/537.36 (KHTML, like Gecko) draw.io/24.7.17 Chrome/128.0.6613.36 Electron/32.0.1 Safari/537.36" version="24.7.17" pages="4">
  <diagram name="페이지-1" id="CqLbvMuXNNMkxU5byLnl">
    <mxGraphModel dx="1050" dy="621" grid="1" gridSize="10" guides="1" tooltips="1" connect="1" arrows="1" fold="1" page="1" pageScale="1" pageWidth="827" pageHeight="1169" math="0" shadow="0">
      <root>
        <mxCell id="0" />
        <mxCell id="1" parent="0" />
        <mxCell id="imFBVasgb_kUipIJ3yBa-1" value="&lt;font style=&quot;font-size: 20px;&quot;&gt;int func&lt;font color=&quot;#ff0000&quot;&gt;(&lt;/font&gt;int a, int b&lt;font color=&quot;#ff0000&quot;&gt;)&lt;/font&gt;&lt;/font&gt;" style="text;html=1;align=center;verticalAlign=middle;whiteSpace=wrap;rounded=0;" parent="1" vertex="1">
          <mxGeometry x="300" y="300" width="200" height="30" as="geometry" />
        </mxCell>
        <mxCell id="imFBVasgb_kUipIJ3yBa-2" value="" style="endArrow=classic;html=1;rounded=0;" parent="1" edge="1">
          <mxGeometry width="50" height="50" relative="1" as="geometry">
            <mxPoint x="430" y="280" as="sourcePoint" />
            <mxPoint x="388" y="305" as="targetPoint" />
          </mxGeometry>
        </mxCell>
        <mxCell id="imFBVasgb_kUipIJ3yBa-3" value="" style="endArrow=classic;html=1;rounded=0;" parent="1" edge="1">
          <mxGeometry width="50" height="50" relative="1" as="geometry">
            <mxPoint x="432" y="280" as="sourcePoint" />
            <mxPoint x="477" y="307" as="targetPoint" />
          </mxGeometry>
        </mxCell>
        <mxCell id="imFBVasgb_kUipIJ3yBa-4" value="함수 포인터의 주소로 보내는 역할" style="text;html=1;align=center;verticalAlign=middle;whiteSpace=wrap;rounded=0;" parent="1" vertex="1">
          <mxGeometry x="330" y="260" width="190" height="20" as="geometry" />
        </mxCell>
      </root>
    </mxGraphModel>
  </diagram>
  <diagram id="gH35ygBZptiW_DyPvFIQ" name="페이지-2">
    <mxGraphModel dx="724" dy="428" grid="1" gridSize="10" guides="1" tooltips="1" connect="1" arrows="1" fold="1" page="1" pageScale="1" pageWidth="827" pageHeight="1169" math="0" shadow="0">
      <root>
        <mxCell id="0" />
        <mxCell id="1" parent="0" />
        <mxCell id="hfQaB4kvZ_ZL_nqJQE_G-1" value="" style="rounded=0;whiteSpace=wrap;html=1;fillColor=#f8cecc;strokeColor=#b85450;" vertex="1" parent="1">
          <mxGeometry x="280" y="280" width="20" height="40" as="geometry" />
        </mxCell>
        <mxCell id="hfQaB4kvZ_ZL_nqJQE_G-2" value="" style="rounded=0;whiteSpace=wrap;html=1;fillColor=#f8cecc;strokeColor=#b85450;" vertex="1" parent="1">
          <mxGeometry x="300" y="280" width="20" height="40" as="geometry" />
        </mxCell>
        <mxCell id="hfQaB4kvZ_ZL_nqJQE_G-9" value="" style="rounded=0;whiteSpace=wrap;html=1;fillColor=#f8cecc;strokeColor=#b85450;" vertex="1" parent="1">
          <mxGeometry x="320" y="280" width="20" height="40" as="geometry" />
        </mxCell>
        <mxCell id="hfQaB4kvZ_ZL_nqJQE_G-10" value="" style="rounded=0;whiteSpace=wrap;html=1;fillColor=#f8cecc;strokeColor=#b85450;" vertex="1" parent="1">
          <mxGeometry x="340" y="280" width="20" height="40" as="geometry" />
        </mxCell>
        <mxCell id="hfQaB4kvZ_ZL_nqJQE_G-11" value="" style="rounded=0;whiteSpace=wrap;html=1;fillColor=#f8cecc;strokeColor=#b85450;" vertex="1" parent="1">
          <mxGeometry x="360" y="280" width="20" height="40" as="geometry" />
        </mxCell>
        <mxCell id="hfQaB4kvZ_ZL_nqJQE_G-12" value="" style="rounded=0;whiteSpace=wrap;html=1;" vertex="1" parent="1">
          <mxGeometry x="380" y="280" width="20" height="40" as="geometry" />
        </mxCell>
        <mxCell id="hfQaB4kvZ_ZL_nqJQE_G-13" value="" style="rounded=0;whiteSpace=wrap;html=1;" vertex="1" parent="1">
          <mxGeometry x="400" y="280" width="20" height="40" as="geometry" />
        </mxCell>
        <mxCell id="hfQaB4kvZ_ZL_nqJQE_G-14" value="" style="rounded=0;whiteSpace=wrap;html=1;" vertex="1" parent="1">
          <mxGeometry x="420" y="280" width="20" height="40" as="geometry" />
        </mxCell>
        <mxCell id="hfQaB4kvZ_ZL_nqJQE_G-19" value="" style="rounded=0;whiteSpace=wrap;html=1;fillColor=#d5e8d4;strokeColor=#82b366;" vertex="1" parent="1">
          <mxGeometry x="460" y="280" width="20" height="40" as="geometry" />
        </mxCell>
        <mxCell id="hfQaB4kvZ_ZL_nqJQE_G-20" value="" style="rounded=0;whiteSpace=wrap;html=1;fillColor=#d5e8d4;strokeColor=#82b366;" vertex="1" parent="1">
          <mxGeometry x="480" y="280" width="20" height="40" as="geometry" />
        </mxCell>
        <mxCell id="hfQaB4kvZ_ZL_nqJQE_G-21" value="" style="rounded=0;whiteSpace=wrap;html=1;fillColor=#d5e8d4;strokeColor=#82b366;" vertex="1" parent="1">
          <mxGeometry x="500" y="280" width="20" height="40" as="geometry" />
        </mxCell>
        <mxCell id="hfQaB4kvZ_ZL_nqJQE_G-22" value="" style="rounded=0;whiteSpace=wrap;html=1;fillColor=#d5e8d4;strokeColor=#82b366;" vertex="1" parent="1">
          <mxGeometry x="520" y="280" width="20" height="40" as="geometry" />
        </mxCell>
        <mxCell id="hfQaB4kvZ_ZL_nqJQE_G-23" value="" style="rounded=0;whiteSpace=wrap;html=1;fillColor=#d5e8d4;strokeColor=#82b366;" vertex="1" parent="1">
          <mxGeometry x="540" y="280" width="20" height="40" as="geometry" />
        </mxCell>
        <mxCell id="hfQaB4kvZ_ZL_nqJQE_G-24" value="" style="rounded=0;whiteSpace=wrap;html=1;fillColor=#d5e8d4;strokeColor=#82b366;" vertex="1" parent="1">
          <mxGeometry x="560" y="280" width="20" height="40" as="geometry" />
        </mxCell>
        <mxCell id="hfQaB4kvZ_ZL_nqJQE_G-25" value="" style="rounded=0;whiteSpace=wrap;html=1;fillColor=#f8cecc;strokeColor=#b85450;" vertex="1" parent="1">
          <mxGeometry x="580" y="280" width="20" height="40" as="geometry" />
        </mxCell>
        <mxCell id="hfQaB4kvZ_ZL_nqJQE_G-26" value="" style="rounded=0;whiteSpace=wrap;html=1;fillColor=#f8cecc;strokeColor=#b85450;" vertex="1" parent="1">
          <mxGeometry x="600" y="280" width="20" height="40" as="geometry" />
        </mxCell>
        <mxCell id="hfQaB4kvZ_ZL_nqJQE_G-27" value="" style="rounded=0;whiteSpace=wrap;html=1;fillColor=#dae8fc;strokeColor=#6c8ebf;" vertex="1" parent="1">
          <mxGeometry x="640" y="280" width="20" height="40" as="geometry" />
        </mxCell>
        <mxCell id="hfQaB4kvZ_ZL_nqJQE_G-28" value="" style="rounded=0;whiteSpace=wrap;html=1;fillColor=#dae8fc;strokeColor=#6c8ebf;" vertex="1" parent="1">
          <mxGeometry x="660" y="280" width="20" height="40" as="geometry" />
        </mxCell>
        <mxCell id="hfQaB4kvZ_ZL_nqJQE_G-29" value="" style="rounded=0;whiteSpace=wrap;html=1;fillColor=#dae8fc;strokeColor=#6c8ebf;" vertex="1" parent="1">
          <mxGeometry x="680" y="280" width="20" height="40" as="geometry" />
        </mxCell>
        <mxCell id="hfQaB4kvZ_ZL_nqJQE_G-30" value="" style="rounded=0;whiteSpace=wrap;html=1;fillColor=#dae8fc;strokeColor=#6c8ebf;" vertex="1" parent="1">
          <mxGeometry x="700" y="280" width="20" height="40" as="geometry" />
        </mxCell>
        <mxCell id="hfQaB4kvZ_ZL_nqJQE_G-31" value="" style="rounded=0;whiteSpace=wrap;html=1;fillColor=#dae8fc;strokeColor=#6c8ebf;" vertex="1" parent="1">
          <mxGeometry x="720" y="280" width="20" height="40" as="geometry" />
        </mxCell>
        <mxCell id="hfQaB4kvZ_ZL_nqJQE_G-32" value="" style="rounded=0;whiteSpace=wrap;html=1;fillColor=#dae8fc;strokeColor=#6c8ebf;" vertex="1" parent="1">
          <mxGeometry x="740" y="280" width="20" height="40" as="geometry" />
        </mxCell>
        <mxCell id="hfQaB4kvZ_ZL_nqJQE_G-33" value="" style="rounded=0;whiteSpace=wrap;html=1;fillColor=#dae8fc;strokeColor=#6c8ebf;" vertex="1" parent="1">
          <mxGeometry x="760" y="280" width="20" height="40" as="geometry" />
        </mxCell>
        <mxCell id="hfQaB4kvZ_ZL_nqJQE_G-34" value="" style="rounded=0;whiteSpace=wrap;html=1;fillColor=#d5e8d4;strokeColor=#82b366;" vertex="1" parent="1">
          <mxGeometry x="780" y="280" width="20" height="40" as="geometry" />
        </mxCell>
        <mxCell id="hfQaB4kvZ_ZL_nqJQE_G-35" value="0x102" style="text;html=1;align=center;verticalAlign=middle;whiteSpace=wrap;rounded=0;" vertex="1" parent="1">
          <mxGeometry x="280" y="250" width="40" height="30" as="geometry" />
        </mxCell>
        <mxCell id="hfQaB4kvZ_ZL_nqJQE_G-36" value="0x101" style="text;html=1;align=center;verticalAlign=middle;whiteSpace=wrap;rounded=0;" vertex="1" parent="1">
          <mxGeometry x="460" y="250" width="40" height="30" as="geometry" />
        </mxCell>
        <mxCell id="hfQaB4kvZ_ZL_nqJQE_G-37" value="0x100" style="text;html=1;align=center;verticalAlign=middle;whiteSpace=wrap;rounded=0;" vertex="1" parent="1">
          <mxGeometry x="640" y="250" width="40" height="30" as="geometry" />
        </mxCell>
        <mxCell id="hfQaB4kvZ_ZL_nqJQE_G-47" value="" style="rounded=0;whiteSpace=wrap;html=1;" vertex="1" parent="1">
          <mxGeometry x="100" y="280" width="20" height="40" as="geometry" />
        </mxCell>
        <mxCell id="hfQaB4kvZ_ZL_nqJQE_G-48" value="" style="rounded=0;whiteSpace=wrap;html=1;" vertex="1" parent="1">
          <mxGeometry x="120" y="280" width="20" height="40" as="geometry" />
        </mxCell>
        <mxCell id="hfQaB4kvZ_ZL_nqJQE_G-49" value="" style="rounded=0;whiteSpace=wrap;html=1;" vertex="1" parent="1">
          <mxGeometry x="140" y="280" width="20" height="40" as="geometry" />
        </mxCell>
        <mxCell id="hfQaB4kvZ_ZL_nqJQE_G-50" value="" style="rounded=0;whiteSpace=wrap;html=1;" vertex="1" parent="1">
          <mxGeometry x="160" y="280" width="20" height="40" as="geometry" />
        </mxCell>
        <mxCell id="hfQaB4kvZ_ZL_nqJQE_G-51" value="" style="rounded=0;whiteSpace=wrap;html=1;" vertex="1" parent="1">
          <mxGeometry x="180" y="280" width="20" height="40" as="geometry" />
        </mxCell>
        <mxCell id="hfQaB4kvZ_ZL_nqJQE_G-52" value="" style="rounded=0;whiteSpace=wrap;html=1;" vertex="1" parent="1">
          <mxGeometry x="200" y="280" width="20" height="40" as="geometry" />
        </mxCell>
        <mxCell id="hfQaB4kvZ_ZL_nqJQE_G-53" value="" style="rounded=0;whiteSpace=wrap;html=1;" vertex="1" parent="1">
          <mxGeometry x="220" y="280" width="20" height="40" as="geometry" />
        </mxCell>
        <mxCell id="hfQaB4kvZ_ZL_nqJQE_G-54" value="" style="rounded=0;whiteSpace=wrap;html=1;" vertex="1" parent="1">
          <mxGeometry x="240" y="280" width="20" height="40" as="geometry" />
        </mxCell>
        <mxCell id="hfQaB4kvZ_ZL_nqJQE_G-55" value="0x103" style="text;html=1;align=center;verticalAlign=middle;whiteSpace=wrap;rounded=0;" vertex="1" parent="1">
          <mxGeometry x="100" y="250" width="40" height="30" as="geometry" />
        </mxCell>
      </root>
    </mxGraphModel>
  </diagram>
  <diagram id="ZyzTB-R9hPBw5rumip1r" name="페이지-3">
    <mxGraphModel dx="600" dy="355" grid="1" gridSize="10" guides="1" tooltips="1" connect="1" arrows="1" fold="1" page="1" pageScale="1" pageWidth="827" pageHeight="1169" math="0" shadow="0">
      <root>
        <mxCell id="0" />
        <mxCell id="1" parent="0" />
        <mxCell id="icSNY0fRBVAftV1Ofkim-28" value="" style="rounded=0;whiteSpace=wrap;html=1;" vertex="1" parent="1">
          <mxGeometry x="80" y="280" width="40" height="40" as="geometry" />
        </mxCell>
        <mxCell id="icSNY0fRBVAftV1Ofkim-29" value="" style="rounded=0;whiteSpace=wrap;html=1;" vertex="1" parent="1">
          <mxGeometry x="120" y="280" width="40" height="40" as="geometry" />
        </mxCell>
        <mxCell id="icSNY0fRBVAftV1Ofkim-36" value="0x100" style="text;html=1;align=center;verticalAlign=middle;whiteSpace=wrap;rounded=0;" vertex="1" parent="1">
          <mxGeometry x="380" y="250" width="40" height="30" as="geometry" />
        </mxCell>
        <mxCell id="icSNY0fRBVAftV1Ofkim-37" value="" style="rounded=0;whiteSpace=wrap;html=1;" vertex="1" parent="1">
          <mxGeometry x="160" y="280" width="40" height="40" as="geometry" />
        </mxCell>
        <mxCell id="icSNY0fRBVAftV1Ofkim-38" value="" style="rounded=0;whiteSpace=wrap;html=1;" vertex="1" parent="1">
          <mxGeometry x="200" y="280" width="40" height="40" as="geometry" />
        </mxCell>
        <mxCell id="icSNY0fRBVAftV1Ofkim-39" value="" style="rounded=0;whiteSpace=wrap;html=1;" vertex="1" parent="1">
          <mxGeometry x="260" y="280" width="40" height="40" as="geometry" />
        </mxCell>
        <mxCell id="icSNY0fRBVAftV1Ofkim-40" value="" style="rounded=0;whiteSpace=wrap;html=1;" vertex="1" parent="1">
          <mxGeometry x="300" y="280" width="40" height="40" as="geometry" />
        </mxCell>
        <mxCell id="icSNY0fRBVAftV1Ofkim-41" value="" style="rounded=0;whiteSpace=wrap;html=1;" vertex="1" parent="1">
          <mxGeometry x="340" y="280" width="40" height="40" as="geometry" />
        </mxCell>
        <mxCell id="icSNY0fRBVAftV1Ofkim-42" value="" style="rounded=0;whiteSpace=wrap;html=1;" vertex="1" parent="1">
          <mxGeometry x="380" y="280" width="40" height="40" as="geometry" />
        </mxCell>
        <mxCell id="icSNY0fRBVAftV1Ofkim-43" value="0x103" style="text;html=1;align=center;verticalAlign=middle;whiteSpace=wrap;rounded=0;" vertex="1" parent="1">
          <mxGeometry x="260" y="250" width="40" height="30" as="geometry" />
        </mxCell>
        <mxCell id="icSNY0fRBVAftV1Ofkim-44" value="0x104" style="text;html=1;align=center;verticalAlign=middle;whiteSpace=wrap;rounded=0;" vertex="1" parent="1">
          <mxGeometry x="200" y="250" width="40" height="30" as="geometry" />
        </mxCell>
        <mxCell id="icSNY0fRBVAftV1Ofkim-45" value="0x107" style="text;html=1;align=center;verticalAlign=middle;whiteSpace=wrap;rounded=0;" vertex="1" parent="1">
          <mxGeometry x="80" y="250" width="40" height="30" as="geometry" />
        </mxCell>
        <mxCell id="icSNY0fRBVAftV1Ofkim-46" value="&lt;font style=&quot;font-size: 17px;&quot;&gt;student&lt;/font&gt;" style="text;html=1;align=center;verticalAlign=middle;whiteSpace=wrap;rounded=0;" vertex="1" parent="1">
          <mxGeometry x="10" y="285" width="60" height="30" as="geometry" />
        </mxCell>
      </root>
    </mxGraphModel>
  </diagram>
  <diagram id="akJ-Ce8BNM5khZrhC8X_" name="페이지-4">
    <mxGraphModel dx="1050" dy="621" grid="1" gridSize="10" guides="1" tooltips="1" connect="1" arrows="1" fold="1" page="1" pageScale="1" pageWidth="827" pageHeight="1169" math="0" shadow="0">
      <root>
        <mxCell id="0" />
        <mxCell id="1" parent="0" />
        <mxCell id="98kDREAqH3ZpFYY7EOxj-1" value="" style="rounded=0;whiteSpace=wrap;html=1;" vertex="1" parent="1">
          <mxGeometry x="320" y="280" width="40" height="80" as="geometry" />
        </mxCell>
        <mxCell id="98kDREAqH3ZpFYY7EOxj-2" value="" style="rounded=0;whiteSpace=wrap;html=1;" vertex="1" parent="1">
          <mxGeometry x="400" y="280" width="40" height="80" as="geometry" />
        </mxCell>
        <mxCell id="98kDREAqH3ZpFYY7EOxj-3" value="head" style="text;html=1;align=center;verticalAlign=middle;whiteSpace=wrap;rounded=0;" vertex="1" parent="1">
          <mxGeometry x="320" y="250" width="40" height="30" as="geometry" />
        </mxCell>
        <mxCell id="98kDREAqH3ZpFYY7EOxj-4" value="tail" style="text;html=1;align=center;verticalAlign=middle;whiteSpace=wrap;rounded=0;" vertex="1" parent="1">
          <mxGeometry x="400" y="250" width="40" height="30" as="geometry" />
        </mxCell>
        <mxCell id="98kDREAqH3ZpFYY7EOxj-6" value="" style="edgeStyle=orthogonalEdgeStyle;rounded=0;orthogonalLoop=1;jettySize=auto;html=1;" edge="1" parent="1" source="98kDREAqH3ZpFYY7EOxj-5" target="98kDREAqH3ZpFYY7EOxj-1">
          <mxGeometry relative="1" as="geometry" />
        </mxCell>
        <mxCell id="98kDREAqH3ZpFYY7EOxj-5" value="cursor" style="ellipse;whiteSpace=wrap;html=1;" vertex="1" parent="1">
          <mxGeometry x="320" y="400" width="40" height="40" as="geometry" />
        </mxCell>
      </root>
    </mxGraphModel>
  </diagram>
</mxfile>
